<svg xmlns="http://www.w3.org/2000/svg" xmlns:xlink="http://www.w3.org/1999/xlink" width="500" zoomAndPan="magnify" viewBox="0 0 375 374.999991" height="500" preserveAspectRatio="xMidYMid meet" version="1.0"><defs><g/><clipPath id="b7c13fe6e9"><path d="M 20.894531 121.828125 L 47 121.828125 L 47 259.828125 L 20.894531 259.828125 Z M 20.894531 121.828125 " clip-rule="nonzero"/></clipPath><clipPath id="4e1e65c3fe"><path d="M 20.894531 140 L 88 140 L 88 241 L 20.894531 241 Z M 20.894531 140 " clip-rule="nonzero"/></clipPath></defs><g clip-path="url(#b7c13fe6e9)"><path fill="#026773" d="M 27.0625 227.574219 L 27.0625 154.085938 L 45.582031 135.574219 C 45.582031 135.574219 48.292969 132.863281 45.582031 130.148438 C 42.867188 127.4375 40.15625 130.148438 40.15625 130.148438 L 27.0625 143.238281 L 27.0625 125.660156 C 27.0625 125.660156 27.0625 121.828125 23.226562 121.828125 C 19.390625 121.828125 19.390625 125.660156 19.390625 125.660156 L 19.390625 143.238281 L 6.292969 130.148438 C 6.292969 130.148438 3.582031 127.4375 0.871094 130.148438 C -1.84375 132.863281 0.871094 135.574219 0.871094 135.574219 L 19.390625 154.085938 L 19.390625 227.574219 L 0.871094 246.082031 C 0.871094 246.082031 -1.84375 248.789062 0.871094 251.5 C 3.582031 254.210938 6.292969 251.5 6.292969 251.5 L 19.390625 238.414062 L 19.390625 255.992188 C 19.390625 255.992188 19.390625 259.828125 23.226562 259.828125 C 27.0625 259.828125 27.0625 255.992188 27.0625 255.992188 L 27.0625 238.414062 L 40.15625 251.5 C 40.15625 251.5 42.867188 254.210938 45.582031 251.5 C 48.292969 248.789062 45.582031 246.082031 45.582031 246.082031 Z M 27.0625 227.574219 " fill-opacity="1" fill-rule="nonzero"/></g><g clip-path="url(#4e1e65c3fe)"><path fill="#026773" d="M 86.988281 201.8125 C 85.992188 198.109375 82.289062 199.101562 82.289062 199.101562 L 56.988281 205.875 L -6.699219 169.128906 L -13.476562 143.847656 C -13.476562 143.847656 -14.472656 140.144531 -18.175781 141.140625 C -21.886719 142.132812 -20.886719 145.835938 -20.886719 145.835938 L -16.09375 163.714844 L -31.328125 154.921875 C -31.328125 154.921875 -34.652344 153.003906 -36.570312 156.324219 C -38.488281 159.644531 -35.164062 161.558594 -35.164062 161.558594 L -19.933594 170.347656 L -37.824219 175.136719 C -37.824219 175.136719 -41.535156 176.128906 -40.535156 179.832031 C -39.542969 183.539062 -35.835938 182.546875 -35.835938 182.546875 L -10.535156 175.773438 L 53.152344 212.519531 L 59.929688 237.804688 C 59.929688 237.804688 60.925781 241.507812 64.628906 240.515625 C 68.335938 239.519531 67.34375 235.820312 67.34375 235.820312 L 62.546875 217.941406 L 77.785156 226.730469 C 77.785156 226.730469 81.109375 228.648438 83.027344 225.332031 C 84.945312 222.007812 81.621094 220.089844 81.621094 220.089844 L 66.386719 211.300781 L 84.273438 206.511719 C 84.273438 206.507812 87.980469 205.515625 86.988281 201.8125 Z M 86.988281 201.8125 " fill-opacity="1" fill-rule="nonzero"/><path fill="#026773" d="M 84.273438 175.136719 L 66.382812 170.34375 L 81.621094 161.554688 C 81.621094 161.554688 84.945312 159.636719 83.027344 156.316406 C 81.105469 152.992188 77.785156 154.914062 77.785156 154.914062 L 62.550781 163.699219 L 67.34375 145.824219 C 67.34375 145.824219 68.335938 142.121094 64.628906 141.128906 C 60.925781 140.136719 59.929688 143.839844 59.929688 143.839844 L 53.152344 169.117188 L -10.539062 205.875 L -35.832031 199.097656 C -35.832031 199.097656 -39.539062 198.105469 -40.53125 201.808594 C -41.53125 205.515625 -37.820312 206.503906 -37.820312 206.503906 L -19.933594 211.292969 L -35.164062 220.082031 C -35.164062 220.082031 -38.484375 222.003906 -36.566406 225.324219 C -34.648438 228.640625 -31.328125 226.722656 -31.328125 226.722656 L -16.09375 217.933594 L -20.886719 235.808594 C -20.886719 235.808594 -21.882812 239.515625 -18.175781 240.503906 C -14.46875 241.5 -13.472656 237.796875 -13.472656 237.796875 L -6.691406 212.507812 L 57 175.765625 L 82.296875 182.542969 C 82.296875 182.542969 86.003906 183.535156 86.996094 179.832031 C 87.976562 176.125 84.273438 175.136719 84.273438 175.136719 Z M 84.273438 175.136719 " fill-opacity="1" fill-rule="nonzero"/></g><g fill="#026773" fill-opacity="1"><g transform="translate(91.271835, 186.548337)"><g><path d="M 15.421875 -12.921875 L 7.921875 -12.921875 L 7.921875 0 L 3.6875 0 L 3.6875 -31.921875 L 14.25 -31.921875 C 17.84375 -31.921875 20.609375 -31.101562 22.546875 -29.46875 C 24.484375 -27.832031 25.453125 -25.453125 25.453125 -22.328125 C 25.453125 -20.335938 24.914062 -18.601562 23.84375 -17.125 C 22.769531 -15.644531 21.273438 -14.539062 19.359375 -13.8125 L 26.859375 -0.265625 L 26.859375 0 L 22.34375 0 Z M 7.921875 -16.359375 L 14.390625 -16.359375 C 16.472656 -16.359375 18.128906 -16.898438 19.359375 -17.984375 C 20.597656 -19.066406 21.21875 -20.515625 21.21875 -22.328125 C 21.21875 -24.296875 20.628906 -25.804688 19.453125 -26.859375 C 18.273438 -27.910156 16.578125 -28.445312 14.359375 -28.46875 L 7.921875 -28.46875 Z M 7.921875 -16.359375 "/></g></g></g><g fill="#026773" fill-opacity="1"><g transform="translate(118.914419, 186.548337)"><g><path d="M 12.921875 0.4375 C 9.703125 0.4375 7.082031 -0.613281 5.0625 -2.71875 C 3.050781 -4.832031 2.046875 -7.660156 2.046875 -11.203125 L 2.046875 -11.953125 C 2.046875 -14.304688 2.492188 -16.40625 3.390625 -18.25 C 4.285156 -20.101562 5.539062 -21.550781 7.15625 -22.59375 C 8.769531 -23.632812 10.519531 -24.15625 12.40625 -24.15625 C 15.488281 -24.15625 17.882812 -23.140625 19.59375 -21.109375 C 21.3125 -19.078125 22.171875 -16.171875 22.171875 -12.390625 L 22.171875 -10.703125 L 6.09375 -10.703125 C 6.15625 -8.359375 6.835938 -6.46875 8.140625 -5.03125 C 9.453125 -3.59375 11.117188 -2.875 13.140625 -2.875 C 14.566406 -2.875 15.773438 -3.164062 16.765625 -3.75 C 17.765625 -4.332031 18.640625 -5.109375 19.390625 -6.078125 L 21.859375 -4.140625 C 19.867188 -1.085938 16.890625 0.4375 12.921875 0.4375 Z M 12.40625 -20.828125 C 10.769531 -20.828125 9.394531 -20.226562 8.28125 -19.03125 C 7.175781 -17.84375 6.492188 -16.175781 6.234375 -14.03125 L 18.109375 -14.03125 L 18.109375 -14.34375 C 17.992188 -16.40625 17.4375 -18 16.4375 -19.125 C 15.445312 -20.257812 14.101562 -20.828125 12.40625 -20.828125 Z M 12.40625 -20.828125 "/></g></g></g><g fill="#026773" fill-opacity="1"><g transform="translate(142.69888, 186.548337)"><g><path d="M 6.90625 -23.71875 L 7.03125 -20.75 C 8.84375 -23.019531 11.210938 -24.15625 14.140625 -24.15625 C 19.148438 -24.15625 21.679688 -21.328125 21.734375 -15.671875 L 21.734375 0 L 17.671875 0 L 17.671875 -15.703125 C 17.660156 -17.410156 17.269531 -18.671875 16.5 -19.484375 C 15.726562 -20.304688 14.535156 -20.71875 12.921875 -20.71875 C 11.597656 -20.71875 10.4375 -20.363281 9.4375 -19.65625 C 8.445312 -18.957031 7.675781 -18.039062 7.125 -16.90625 L 7.125 0 L 3.0625 0 L 3.0625 -23.71875 Z M 6.90625 -23.71875 "/></g></g></g><g fill="#026773" fill-opacity="1"><g transform="translate(167.469787, 186.548337)"><g><path d="M 17.71875 0 C 17.476562 -0.46875 17.285156 -1.300781 17.140625 -2.5 C 15.253906 -0.539062 13.003906 0.4375 10.390625 0.4375 C 8.054688 0.4375 6.140625 -0.222656 4.640625 -1.546875 C 3.140625 -2.867188 2.390625 -4.546875 2.390625 -6.578125 C 2.390625 -9.046875 3.328125 -10.960938 5.203125 -12.328125 C 7.085938 -13.703125 9.734375 -14.390625 13.140625 -14.390625 L 17.078125 -14.390625 L 17.078125 -16.25 C 17.078125 -17.664062 16.648438 -18.789062 15.796875 -19.625 C 14.953125 -20.46875 13.707031 -20.890625 12.0625 -20.890625 C 10.613281 -20.890625 9.398438 -20.523438 8.421875 -19.796875 C 7.441406 -19.066406 6.953125 -18.179688 6.953125 -17.140625 L 2.875 -17.140625 C 2.875 -18.328125 3.289062 -19.472656 4.125 -20.578125 C 4.96875 -21.679688 6.109375 -22.550781 7.546875 -23.1875 C 8.992188 -23.832031 10.578125 -24.15625 12.296875 -24.15625 C 15.035156 -24.15625 17.175781 -23.472656 18.71875 -22.109375 C 20.269531 -20.742188 21.078125 -18.863281 21.140625 -16.46875 L 21.140625 -5.546875 C 21.140625 -3.367188 21.414062 -1.632812 21.96875 -0.34375 L 21.96875 0 Z M 10.984375 -3.09375 C 12.253906 -3.09375 13.457031 -3.421875 14.59375 -4.078125 C 15.738281 -4.734375 16.566406 -5.585938 17.078125 -6.640625 L 17.078125 -11.515625 L 13.90625 -11.515625 C 8.9375 -11.515625 6.453125 -10.054688 6.453125 -7.140625 C 6.453125 -5.867188 6.875 -4.875 7.71875 -4.15625 C 8.5625 -3.445312 9.648438 -3.09375 10.984375 -3.09375 Z M 10.984375 -3.09375 "/></g></g></g><g fill="#026773" fill-opacity="1"><g transform="translate(191.889954, 186.548337)"><g><path d="M 6.90625 -23.71875 L 7.03125 -20.75 C 8.84375 -23.019531 11.210938 -24.15625 14.140625 -24.15625 C 19.148438 -24.15625 21.679688 -21.328125 21.734375 -15.671875 L 21.734375 0 L 17.671875 0 L 17.671875 -15.703125 C 17.660156 -17.410156 17.269531 -18.671875 16.5 -19.484375 C 15.726562 -20.304688 14.535156 -20.71875 12.921875 -20.71875 C 11.597656 -20.71875 10.4375 -20.363281 9.4375 -19.65625 C 8.445312 -18.957031 7.675781 -18.039062 7.125 -16.90625 L 7.125 0 L 3.0625 0 L 3.0625 -23.71875 Z M 6.90625 -23.71875 "/></g></g></g><g fill="#026773" fill-opacity="1"><g transform="translate(91.271835, 230.798334)"><g><path d="M 15.421875 -12.921875 L 7.921875 -12.921875 L 7.921875 0 L 3.6875 0 L 3.6875 -31.921875 L 14.25 -31.921875 C 17.84375 -31.921875 20.609375 -31.101562 22.546875 -29.46875 C 24.484375 -27.832031 25.453125 -25.453125 25.453125 -22.328125 C 25.453125 -20.335938 24.914062 -18.601562 23.84375 -17.125 C 22.769531 -15.644531 21.273438 -14.539062 19.359375 -13.8125 L 26.859375 -0.265625 L 26.859375 0 L 22.34375 0 Z M 7.921875 -16.359375 L 14.390625 -16.359375 C 16.472656 -16.359375 18.128906 -16.898438 19.359375 -17.984375 C 20.597656 -19.066406 21.21875 -20.515625 21.21875 -22.328125 C 21.21875 -24.296875 20.628906 -25.804688 19.453125 -26.859375 C 18.273438 -27.910156 16.578125 -28.445312 14.359375 -28.46875 L 7.921875 -28.46875 Z M 7.921875 -16.359375 "/></g></g></g><g fill="#026773" fill-opacity="1"><g transform="translate(118.914419, 230.798334)"><g><path d="M 12.921875 0.4375 C 9.703125 0.4375 7.082031 -0.613281 5.0625 -2.71875 C 3.050781 -4.832031 2.046875 -7.660156 2.046875 -11.203125 L 2.046875 -11.953125 C 2.046875 -14.304688 2.492188 -16.40625 3.390625 -18.25 C 4.285156 -20.101562 5.539062 -21.550781 7.15625 -22.59375 C 8.769531 -23.632812 10.519531 -24.15625 12.40625 -24.15625 C 15.488281 -24.15625 17.882812 -23.140625 19.59375 -21.109375 C 21.3125 -19.078125 22.171875 -16.171875 22.171875 -12.390625 L 22.171875 -10.703125 L 6.09375 -10.703125 C 6.15625 -8.359375 6.835938 -6.46875 8.140625 -5.03125 C 9.453125 -3.59375 11.117188 -2.875 13.140625 -2.875 C 14.566406 -2.875 15.773438 -3.164062 16.765625 -3.75 C 17.765625 -4.332031 18.640625 -5.109375 19.390625 -6.078125 L 21.859375 -4.140625 C 19.867188 -1.085938 16.890625 0.4375 12.921875 0.4375 Z M 12.40625 -20.828125 C 10.769531 -20.828125 9.394531 -20.226562 8.28125 -19.03125 C 7.175781 -17.84375 6.492188 -16.175781 6.234375 -14.03125 L 18.109375 -14.03125 L 18.109375 -14.34375 C 17.992188 -16.40625 17.4375 -18 16.4375 -19.125 C 15.445312 -20.257812 14.101562 -20.828125 12.40625 -20.828125 Z M 12.40625 -20.828125 "/></g></g></g><g fill="#026773" fill-opacity="1"><g transform="translate(142.69888, 230.798334)"><g><path d="M 5.0625 0 L 5.0625 -20.59375 L 1.3125 -20.59375 L 1.3125 -23.71875 L 5.0625 -23.71875 L 5.0625 -26.15625 C 5.0625 -28.695312 5.738281 -30.660156 7.09375 -32.046875 C 8.457031 -33.441406 10.382812 -34.140625 12.875 -34.140625 C 13.8125 -34.140625 14.738281 -34.015625 15.65625 -33.765625 L 15.4375 -30.484375 C 14.75 -30.609375 14.019531 -30.671875 13.25 -30.671875 C 11.925781 -30.671875 10.90625 -30.285156 10.1875 -29.515625 C 9.476562 -28.753906 9.125 -27.65625 9.125 -26.21875 L 9.125 -23.71875 L 14.1875 -23.71875 L 14.1875 -20.59375 L 9.125 -20.59375 L 9.125 0 Z M 5.0625 0 "/></g></g></g><g fill="#026773" fill-opacity="1"><g transform="translate(158.284827, 230.798334)"><g><path d="M 14.53125 -20.078125 C 13.914062 -20.179688 13.253906 -20.234375 12.546875 -20.234375 C 9.878906 -20.234375 8.070312 -19.101562 7.125 -16.84375 L 7.125 0 L 3.0625 0 L 3.0625 -23.71875 L 7.015625 -23.71875 L 7.078125 -20.984375 C 8.410156 -23.097656 10.296875 -24.15625 12.734375 -24.15625 C 13.523438 -24.15625 14.125 -24.054688 14.53125 -23.859375 Z M 14.53125 -20.078125 "/></g></g></g><g fill="#026773" fill-opacity="1"><g transform="translate(173.476194, 230.798334)"><g><path d="M 7.484375 0 L 3.421875 0 L 3.421875 -23.71875 L 7.484375 -23.71875 Z M 3.09375 -30.015625 C 3.09375 -30.671875 3.289062 -31.222656 3.6875 -31.671875 C 4.09375 -32.128906 4.691406 -32.359375 5.484375 -32.359375 C 6.273438 -32.359375 6.875 -32.128906 7.28125 -31.671875 C 7.6875 -31.222656 7.890625 -30.671875 7.890625 -30.015625 C 7.890625 -29.359375 7.6875 -28.8125 7.28125 -28.375 C 6.875 -27.9375 6.273438 -27.71875 5.484375 -27.71875 C 4.691406 -27.71875 4.09375 -27.9375 3.6875 -28.375 C 3.289062 -28.8125 3.09375 -29.359375 3.09375 -30.015625 Z M 3.09375 -30.015625 "/></g></g></g><g fill="#026773" fill-opacity="1"><g transform="translate(184.371015, 230.798334)"><g><path d="M 2.109375 -12.0625 C 2.109375 -15.757812 2.960938 -18.695312 4.671875 -20.875 C 6.378906 -23.0625 8.644531 -24.15625 11.46875 -24.15625 C 14.363281 -24.15625 16.625 -23.132812 18.25 -21.09375 L 18.4375 -23.71875 L 22.140625 -23.71875 L 22.140625 -0.5625 C 22.140625 2.5 21.226562 4.914062 19.40625 6.6875 C 17.59375 8.457031 15.148438 9.34375 12.078125 9.34375 C 10.367188 9.34375 8.695312 8.972656 7.0625 8.234375 C 5.425781 7.503906 4.175781 6.503906 3.3125 5.234375 L 5.421875 2.8125 C 7.160156 4.957031 9.285156 6.03125 11.796875 6.03125 C 13.765625 6.03125 15.300781 5.472656 16.40625 4.359375 C 17.507812 3.253906 18.0625 1.691406 18.0625 -0.328125 L 18.0625 -2.375 C 16.445312 -0.5 14.234375 0.4375 11.421875 0.4375 C 8.640625 0.4375 6.390625 -0.675781 4.671875 -2.90625 C 2.960938 -5.144531 2.109375 -8.195312 2.109375 -12.0625 Z M 6.1875 -11.59375 C 6.1875 -8.925781 6.734375 -6.828125 7.828125 -5.296875 C 8.921875 -3.765625 10.457031 -3 12.4375 -3 C 14.988281 -3 16.863281 -4.160156 18.0625 -6.484375 L 18.0625 -17.328125 C 16.820312 -19.585938 14.957031 -20.71875 12.46875 -20.71875 C 10.5 -20.71875 8.957031 -19.945312 7.84375 -18.40625 C 6.738281 -16.875 6.1875 -14.601562 6.1875 -11.59375 Z M 6.1875 -11.59375 "/></g></g></g><g fill="#026773" fill-opacity="1"><g transform="translate(209.558429, 230.798334)"><g><path d="M 12.921875 0.4375 C 9.703125 0.4375 7.082031 -0.613281 5.0625 -2.71875 C 3.050781 -4.832031 2.046875 -7.660156 2.046875 -11.203125 L 2.046875 -11.953125 C 2.046875 -14.304688 2.492188 -16.40625 3.390625 -18.25 C 4.285156 -20.101562 5.539062 -21.550781 7.15625 -22.59375 C 8.769531 -23.632812 10.519531 -24.15625 12.40625 -24.15625 C 15.488281 -24.15625 17.882812 -23.140625 19.59375 -21.109375 C 21.3125 -19.078125 22.171875 -16.171875 22.171875 -12.390625 L 22.171875 -10.703125 L 6.09375 -10.703125 C 6.15625 -8.359375 6.835938 -6.46875 8.140625 -5.03125 C 9.453125 -3.59375 11.117188 -2.875 13.140625 -2.875 C 14.566406 -2.875 15.773438 -3.164062 16.765625 -3.75 C 17.765625 -4.332031 18.640625 -5.109375 19.390625 -6.078125 L 21.859375 -4.140625 C 19.867188 -1.085938 16.890625 0.4375 12.921875 0.4375 Z M 12.40625 -20.828125 C 10.769531 -20.828125 9.394531 -20.226562 8.28125 -19.03125 C 7.175781 -17.84375 6.492188 -16.175781 6.234375 -14.03125 L 18.109375 -14.03125 L 18.109375 -14.34375 C 17.992188 -16.40625 17.4375 -18 16.4375 -19.125 C 15.445312 -20.257812 14.101562 -20.828125 12.40625 -20.828125 Z M 12.40625 -20.828125 "/></g></g></g><g fill="#026773" fill-opacity="1"><g transform="translate(233.342889, 230.798334)"><g><path d="M 14.53125 -20.078125 C 13.914062 -20.179688 13.253906 -20.234375 12.546875 -20.234375 C 9.878906 -20.234375 8.070312 -19.101562 7.125 -16.84375 L 7.125 0 L 3.0625 0 L 3.0625 -23.71875 L 7.015625 -23.71875 L 7.078125 -20.984375 C 8.410156 -23.097656 10.296875 -24.15625 12.734375 -24.15625 C 13.523438 -24.15625 14.125 -24.054688 14.53125 -23.859375 Z M 14.53125 -20.078125 "/></g></g></g><g fill="#026773" fill-opacity="1"><g transform="translate(248.534256, 230.798334)"><g><path d="M 17.71875 0 C 17.476562 -0.46875 17.285156 -1.300781 17.140625 -2.5 C 15.253906 -0.539062 13.003906 0.4375 10.390625 0.4375 C 8.054688 0.4375 6.140625 -0.222656 4.640625 -1.546875 C 3.140625 -2.867188 2.390625 -4.546875 2.390625 -6.578125 C 2.390625 -9.046875 3.328125 -10.960938 5.203125 -12.328125 C 7.085938 -13.703125 9.734375 -14.390625 13.140625 -14.390625 L 17.078125 -14.390625 L 17.078125 -16.25 C 17.078125 -17.664062 16.648438 -18.789062 15.796875 -19.625 C 14.953125 -20.46875 13.707031 -20.890625 12.0625 -20.890625 C 10.613281 -20.890625 9.398438 -20.523438 8.421875 -19.796875 C 7.441406 -19.066406 6.953125 -18.179688 6.953125 -17.140625 L 2.875 -17.140625 C 2.875 -18.328125 3.289062 -19.472656 4.125 -20.578125 C 4.96875 -21.679688 6.109375 -22.550781 7.546875 -23.1875 C 8.992188 -23.832031 10.578125 -24.15625 12.296875 -24.15625 C 15.035156 -24.15625 17.175781 -23.472656 18.71875 -22.109375 C 20.269531 -20.742188 21.078125 -18.863281 21.140625 -16.46875 L 21.140625 -5.546875 C 21.140625 -3.367188 21.414062 -1.632812 21.96875 -0.34375 L 21.96875 0 Z M 10.984375 -3.09375 C 12.253906 -3.09375 13.457031 -3.421875 14.59375 -4.078125 C 15.738281 -4.734375 16.566406 -5.585938 17.078125 -6.640625 L 17.078125 -11.515625 L 13.90625 -11.515625 C 8.9375 -11.515625 6.453125 -10.054688 6.453125 -7.140625 C 6.453125 -5.867188 6.875 -4.875 7.71875 -4.15625 C 8.5625 -3.445312 9.648438 -3.09375 10.984375 -3.09375 Z M 10.984375 -3.09375 "/></g></g></g><g fill="#026773" fill-opacity="1"><g transform="translate(272.954424, 230.798334)"><g><path d="M 12.59375 -2.875 C 14.03125 -2.875 15.289062 -3.3125 16.375 -4.1875 C 17.457031 -5.0625 18.054688 -6.160156 18.171875 -7.484375 L 22.015625 -7.484375 C 21.941406 -6.117188 21.472656 -4.820312 20.609375 -3.59375 C 19.742188 -2.363281 18.59375 -1.382812 17.15625 -0.65625 C 15.71875 0.0703125 14.195312 0.4375 12.59375 0.4375 C 9.351562 0.4375 6.78125 -0.640625 4.875 -2.796875 C 2.96875 -4.953125 2.015625 -7.898438 2.015625 -11.640625 L 2.015625 -12.328125 C 2.015625 -14.628906 2.4375 -16.679688 3.28125 -18.484375 C 4.132812 -20.285156 5.351562 -21.679688 6.9375 -22.671875 C 8.519531 -23.660156 10.394531 -24.15625 12.5625 -24.15625 C 15.226562 -24.15625 17.441406 -23.359375 19.203125 -21.765625 C 20.960938 -20.179688 21.898438 -18.113281 22.015625 -15.5625 L 18.171875 -15.5625 C 18.054688 -17.101562 17.472656 -18.363281 16.421875 -19.34375 C 15.378906 -20.332031 14.09375 -20.828125 12.5625 -20.828125 C 10.5 -20.828125 8.898438 -20.082031 7.765625 -18.59375 C 6.640625 -17.113281 6.078125 -14.972656 6.078125 -12.171875 L 6.078125 -11.40625 C 6.078125 -8.664062 6.640625 -6.554688 7.765625 -5.078125 C 8.890625 -3.609375 10.5 -2.875 12.59375 -2.875 Z M 13.25 0.203125 L 12.984375 1.34375 C 15.222656 1.738281 16.34375 3.003906 16.34375 5.140625 C 16.34375 6.554688 15.753906 7.675781 14.578125 8.5 C 13.410156 9.320312 11.785156 9.734375 9.703125 9.734375 L 9.546875 7.390625 C 10.703125 7.390625 11.597656 7.195312 12.234375 6.8125 C 12.867188 6.4375 13.1875 5.90625 13.1875 5.21875 C 13.1875 4.582031 12.953125 4.109375 12.484375 3.796875 C 12.015625 3.492188 11.0625 3.273438 9.625 3.140625 L 10.328125 0.203125 Z M 13.25 0.203125 "/></g></g></g><g fill="#026773" fill-opacity="1"><g transform="translate(296.453904, 230.798334)"><g><path d="M 17.71875 0 C 17.476562 -0.46875 17.285156 -1.300781 17.140625 -2.5 C 15.253906 -0.539062 13.003906 0.4375 10.390625 0.4375 C 8.054688 0.4375 6.140625 -0.222656 4.640625 -1.546875 C 3.140625 -2.867188 2.390625 -4.546875 2.390625 -6.578125 C 2.390625 -9.046875 3.328125 -10.960938 5.203125 -12.328125 C 7.085938 -13.703125 9.734375 -14.390625 13.140625 -14.390625 L 17.078125 -14.390625 L 17.078125 -16.25 C 17.078125 -17.664062 16.648438 -18.789062 15.796875 -19.625 C 14.953125 -20.46875 13.707031 -20.890625 12.0625 -20.890625 C 10.613281 -20.890625 9.398438 -20.523438 8.421875 -19.796875 C 7.441406 -19.066406 6.953125 -18.179688 6.953125 -17.140625 L 2.875 -17.140625 C 2.875 -18.328125 3.289062 -19.472656 4.125 -20.578125 C 4.96875 -21.679688 6.109375 -22.550781 7.546875 -23.1875 C 8.992188 -23.832031 10.578125 -24.15625 12.296875 -24.15625 C 15.035156 -24.15625 17.175781 -23.472656 18.71875 -22.109375 C 20.269531 -20.742188 21.078125 -18.863281 21.140625 -16.46875 L 21.140625 -5.546875 C 21.140625 -3.367188 21.414062 -1.632812 21.96875 -0.34375 L 21.96875 0 Z M 10.984375 -3.09375 C 12.253906 -3.09375 13.457031 -3.421875 14.59375 -4.078125 C 15.738281 -4.734375 16.566406 -5.585938 17.078125 -6.640625 L 17.078125 -11.515625 L 13.90625 -11.515625 C 8.9375 -11.515625 6.453125 -10.054688 6.453125 -7.140625 C 6.453125 -5.867188 6.875 -4.875 7.71875 -4.15625 C 8.5625 -3.445312 9.648438 -3.09375 10.984375 -3.09375 Z M 20.53125 -32.984375 C 20.53125 -31.398438 20.078125 -30.117188 19.171875 -29.140625 C 18.273438 -28.160156 17.15625 -27.671875 15.8125 -27.671875 C 15.21875 -27.671875 14.695312 -27.742188 14.25 -27.890625 C 13.8125 -28.035156 13.238281 -28.332031 12.53125 -28.78125 C 11.820312 -29.238281 11.3125 -29.515625 11 -29.609375 C 10.6875 -29.710938 10.328125 -29.765625 9.921875 -29.765625 C 9.316406 -29.765625 8.800781 -29.53125 8.375 -29.0625 C 7.957031 -28.601562 7.75 -28.019531 7.75 -27.3125 L 5.03125 -27.453125 C 5.03125 -29.015625 5.46875 -30.304688 6.34375 -31.328125 C 7.226562 -32.359375 8.351562 -32.875 9.71875 -32.875 C 10.226562 -32.875 10.6875 -32.800781 11.09375 -32.65625 C 11.507812 -32.507812 12.066406 -32.222656 12.765625 -31.796875 C 13.460938 -31.378906 14 -31.101562 14.375 -30.96875 C 14.75 -30.832031 15.160156 -30.765625 15.609375 -30.765625 C 16.242188 -30.765625 16.769531 -31.015625 17.1875 -31.515625 C 17.601562 -32.015625 17.8125 -32.59375 17.8125 -33.25 Z M 20.53125 -32.984375 "/></g></g></g><g fill="#026773" fill-opacity="1"><g transform="translate(320.874084, 230.798334)"><g><path d="M 2 -12.078125 C 2 -14.398438 2.453125 -16.488281 3.359375 -18.34375 C 4.273438 -20.207031 5.546875 -21.640625 7.171875 -22.640625 C 8.804688 -23.648438 10.671875 -24.15625 12.765625 -24.15625 C 15.992188 -24.15625 18.601562 -23.035156 20.59375 -20.796875 C 22.59375 -18.566406 23.59375 -15.597656 23.59375 -11.890625 L 23.59375 -11.59375 C 23.59375 -9.289062 23.148438 -7.21875 22.265625 -5.375 C 21.378906 -3.539062 20.113281 -2.113281 18.46875 -1.09375 C 16.820312 -0.0703125 14.9375 0.4375 12.8125 0.4375 C 9.59375 0.4375 6.984375 -0.675781 4.984375 -2.90625 C 2.992188 -5.144531 2 -8.109375 2 -11.796875 Z M 6.078125 -11.59375 C 6.078125 -8.96875 6.6875 -6.859375 7.90625 -5.265625 C 9.125 -3.671875 10.757812 -2.875 12.8125 -2.875 C 14.863281 -2.875 16.492188 -3.679688 17.703125 -5.296875 C 18.921875 -6.910156 19.53125 -9.171875 19.53125 -12.078125 C 19.53125 -14.679688 18.910156 -16.789062 17.671875 -18.40625 C 16.441406 -20.019531 14.804688 -20.828125 12.765625 -20.828125 C 10.753906 -20.828125 9.132812 -20.03125 7.90625 -18.4375 C 6.6875 -16.84375 6.078125 -14.5625 6.078125 -11.59375 Z M 6.078125 -11.59375 "/></g></g></g></svg>