<svg width="64" height="64" viewBox="0 0 64 64" fill="none" xmlns="http://www.w3.org/2000/svg">
<g clip-path="url(#clip0_27_375)">
<path d="M8 0C3.58333 0 0 2.6875 0 6V58C0 61.3125 3.58333 64 8 64H24V54C24 50.6875 27.5833 48 32 48C36.4167 48 40 50.6875 40 54V64H56C60.4167 64 64 61.3125 64 58V6C64 2.6875 60.4167 0 56 0H8ZM10.6667 30C10.6667 28.9 11.8667 28 13.3333 28H18.6667C20.1333 28 21.3333 28.9 21.3333 30V34C21.3333 35.1 20.1333 36 18.6667 36H13.3333C11.8667 36 10.6667 35.1 10.6667 34V30ZM29.3333 28H34.6667C36.1333 28 37.3333 28.9 37.3333 30V34C37.3333 35.1 36.1333 36 34.6667 36H29.3333C27.8667 36 26.6667 35.1 26.6667 34V30C26.6667 28.9 27.8667 28 29.3333 28ZM42.6667 30C42.6667 28.9 43.8667 28 45.3333 28H50.6667C52.1333 28 53.3333 28.9 53.3333 30V34C53.3333 35.1 52.1333 36 50.6667 36H45.3333C43.8667 36 42.6667 35.1 42.6667 34V30ZM13.3333 12H18.6667C20.1333 12 21.3333 12.9 21.3333 14V18C21.3333 19.1 20.1333 20 18.6667 20H13.3333C11.8667 20 10.6667 19.1 10.6667 18V14C10.6667 12.9 11.8667 12 13.3333 12ZM26.6667 14C26.6667 12.9 27.8667 12 29.3333 12H34.6667C36.1333 12 37.3333 12.9 37.3333 14V18C37.3333 19.1 36.1333 20 34.6667 20H29.3333C27.8667 20 26.6667 19.1 26.6667 18V14ZM45.3333 12H50.6667C52.1333 12 53.3333 12.9 53.3333 14V18C53.3333 19.1 52.1333 20 50.6667 20H45.3333C43.8667 20 42.6667 19.1 42.6667 18V14C42.6667 12.9 43.8667 12 45.3333 12Z" fill="#012840"/>
</g>
<defs>
<clipPath id="clip0_27_375">
<rect width="64" height="64" fill="white"/>
</clipPath>
</defs>
</svg>
