<svg width="64" height="64" viewBox="0 0 64 64" fill="none" xmlns="http://www.w3.org/2000/svg">
<g clip-path="url(#clip0_138_43)">
<path d="M32 8C18.75 8 8 18.75 8 32C8 45.25 18.75 56 32 56C34.2125 56 36 57.7875 36 60C36 62.2125 34.2125 64 32 64C14.325 64 0 49.675 0 32C0 14.325 14.325 0 32 0C49.675 0 64 14.325 64 32V36C64 42.625 58.625 48 52 48C48.3375 48 45.05 46.35 42.85 43.7625C40 46.3875 36.1875 48 32 48C23.1625 48 16 40.8375 16 32C16 23.1625 23.1625 16 32 16C35.4875 16 38.7125 17.1125 41.3375 19.0125C42.05 18.3875 42.975 18 44 18C46.2125 18 48 19.7875 48 22V32V36C48 38.2125 49.7875 40 52 40C54.2125 40 56 38.2125 56 36V32C56 18.75 45.25 8 32 8ZM40 32C40 29.8783 39.1571 27.8434 37.6569 26.3431C36.1566 24.8429 34.1217 24 32 24C29.8783 24 27.8434 24.8429 26.3431 26.3431C24.8429 27.8434 24 29.8783 24 32C24 34.1217 24.8429 36.1566 26.3431 37.6569C27.8434 39.1571 29.8783 40 32 40C34.1217 40 36.1566 39.1571 37.6569 37.6569C39.1571 36.1566 40 34.1217 40 32Z" fill="#D9D9D9"/>
</g>
<defs>
<clipPath id="clip0_138_43">
<rect width="64" height="64" fill="white"/>
</clipPath>
</defs>
</svg>
