<svg width="64" height="64" viewBox="0 0 64 64" fill="none" xmlns="http://www.w3.org/2000/svg">
<g clip-path="url(#clip0_58_15)">
<path d="M44.2783 5.15831C48.0789 5.15831 51.7238 6.67575 54.4113 9.37681C57.0987 12.0779 58.6085 15.7413 58.6085 19.5612V44.4389C58.6085 48.2588 57.0987 51.9222 54.4113 54.6233C51.7238 57.3243 48.0789 58.8418 44.2783 58.8418H19.526C15.7253 58.8418 12.0804 57.3243 9.39293 54.6233C6.70548 51.9222 5.19569 48.2588 5.19569 44.4389V19.5612C5.19569 15.7413 6.70548 12.0779 9.39293 9.37681C12.0804 6.67575 15.7253 5.15831 19.526 5.15831H44.2783ZM44.2783 -0.0791016H19.526C14.348 -0.063559 9.38663 2.01067 5.72527 5.69058C2.06392 9.37048 0.000144434 14.357 -0.0153198 19.5612V44.4389C0.000144434 49.643 2.06392 54.6296 5.72527 58.3095C9.38663 61.9894 14.348 64.0636 19.526 64.0792H44.2783C49.4562 64.0636 54.4176 61.9894 58.0789 58.3095C61.7403 54.6296 63.8041 49.643 63.8195 44.4389V19.5612C63.8041 14.357 61.7403 9.37048 58.0789 5.69058C54.4176 2.01067 49.4562 -0.063559 44.2783 -0.0791016Z" fill="#D9D9D9"/>
<path d="M48.9291 11.0508C48.1909 11.0508 47.4693 11.2708 46.8555 11.683C46.2417 12.0952 45.7633 12.6811 45.4808 13.3665C45.1983 14.052 45.1244 14.8062 45.2684 15.5339C45.4125 16.2616 45.7679 16.93 46.2899 17.4546C46.8119 17.9793 47.4769 18.3365 48.2009 18.4813C48.925 18.626 49.6754 18.5517 50.3574 18.2678C51.0394 17.9839 51.6223 17.5031 52.0325 16.8862C52.4426 16.2693 52.6615 15.544 52.6615 14.8021C52.6615 14.3094 52.5649 13.8216 52.3774 13.3665C52.1898 12.9114 51.9149 12.4979 51.5683 12.1495C51.2217 11.8012 50.8103 11.5249 50.3574 11.3363C49.9046 11.1478 49.4192 11.0508 48.9291 11.0508Z" fill="#D9D9D9"/>
<path d="M32.078 20.5236C34.3563 20.5223 36.5837 21.2002 38.4786 22.4715C40.3734 23.7429 41.8505 25.5505 42.723 27.6658C43.5954 29.7811 43.824 32.1089 43.3799 34.3547C42.9357 36.6006 41.8388 38.6636 40.2278 40.2828C38.6168 41.9019 36.5642 43.0044 34.3297 43.4508C32.0951 43.8972 29.779 43.6675 27.6744 42.7906C25.5698 41.9137 23.7713 40.4292 22.5063 38.5247C21.2414 36.6203 20.5669 34.3815 20.5682 32.0917C20.5734 29.0252 21.7877 26.0859 23.9451 23.9175C26.1024 21.7492 29.027 20.5288 32.078 20.5236ZM32.078 15.2862C28.7708 15.2926 25.5397 16.2843 22.793 18.1359C20.0464 19.9874 17.9075 22.6158 16.6466 25.6887C15.3857 28.7617 15.0595 32.1413 15.7091 35.4006C16.3587 38.6598 17.9551 41.6523 20.2964 44C22.6377 46.3477 25.6189 47.9451 28.8632 48.5904C32.1075 49.2358 35.4694 48.9 38.5239 47.6256C41.5784 46.3511 44.1885 44.1953 46.0243 41.4304C47.8601 38.6655 48.8392 35.4157 48.8379 32.0917C48.8371 29.8817 48.4027 27.6936 47.5597 25.6524C46.7166 23.6113 45.4814 21.7573 43.9248 20.1964C42.3681 18.6355 40.5206 17.3984 38.4878 16.5559C36.455 15.7133 34.2769 15.2819 32.078 15.2862Z" fill="#D9D9D9"/>
</g>
<defs>
<clipPath id="clip0_58_15">
<rect width="64" height="64" fill="white"/>
</clipPath>
</defs>
</svg>
