<svg width="64" height="64" viewBox="0 0 64 64" fill="none" xmlns="http://www.w3.org/2000/svg">
<path d="M60.8444 12.975L54.4778 1.6375C53.9111 0.625 52.9 0 51.8222 0H12.1778C11.1 0 10.0889 0.625 9.52221 1.6375L3.14443 12.975C-0.144459 18.825 2.76665 26.9625 8.9111 27.9C9.35554 27.9625 9.8111 28 10.2555 28C13.1555 28 15.7333 26.575 17.5 24.375C19.2667 26.575 21.8444 28 24.7444 28C27.6444 28 30.2222 26.575 31.9889 24.375C33.7555 26.575 36.3333 28 39.2333 28C42.1444 28 44.7111 26.575 46.4778 24.375C48.2555 26.575 50.8222 28 53.7222 28C54.1778 28 54.6222 27.9625 55.0667 27.9C61.2333 26.975 64.1555 18.8375 60.8555 12.975H60.8444ZM55.5222 31.8625H55.5111C54.9222 31.95 54.3222 32 53.7111 32C52.3333 32 51.0111 31.7625 49.7778 31.3375V48H14.2222V31.325C12.9778 31.7625 11.6444 32 10.2667 32C9.65554 32 9.04443 31.95 8.45554 31.8625H8.44443C7.98887 31.7875 7.54443 31.7 7.1111 31.575V48V56C7.1111 60.4125 10.3 64 14.2222 64H49.7778C53.7 64 56.8889 60.4125 56.8889 56V48V31.575C56.4444 31.7 56 31.8 55.5222 31.8625Z" fill="#012840"/>
</svg>
