<svg width="64" height="64" viewBox="0 0 64 64" fill="none" xmlns="http://www.w3.org/2000/svg">
<g clip-path="url(#clip0_138_45)">
<path d="M54.4143 9.3C48.4286 3.3 40.4571 0 31.9857 0C14.5 0 0.271429 14.2286 0.271429 31.7143C0.271429 37.3 1.72857 42.7571 4.5 47.5714L0 64L16.8143 59.5857C21.4429 62.1143 26.6571 63.4429 31.9714 63.4429H31.9857C49.4571 63.4429 64 49.2143 64 31.7286C64 23.2571 60.4 15.3 54.4143 9.3ZM31.9857 58.1C27.2429 58.1 22.6 56.8286 18.5571 54.4286L17.6 53.8571L7.62857 56.4714L10.2857 46.7429L9.65714 45.7429C7.01429 41.5429 5.62857 36.7 5.62857 31.7143C5.62857 17.1857 17.4571 5.35714 32 5.35714C39.0429 5.35714 45.6571 8.1 50.6286 13.0857C55.6 18.0714 58.6571 24.6857 58.6429 31.7286C58.6429 46.2714 46.5143 58.1 31.9857 58.1ZM46.4429 38.3571C45.6571 37.9571 41.7571 36.0429 41.0286 35.7857C40.3 35.5143 39.7714 35.3857 39.2429 36.1857C38.7143 36.9857 37.2 38.7571 36.7286 39.3C36.2714 39.8286 35.8 39.9 35.0143 39.5C30.3571 37.1714 27.3 35.3429 24.2286 30.0714C23.4143 28.6714 25.0429 28.7714 26.5571 25.7429C26.8143 25.2143 26.6857 24.7571 26.4857 24.3571C26.2857 23.9571 24.7 20.0571 24.0429 18.4714C23.4 16.9286 22.7429 17.1429 22.2571 17.1143C21.8 17.0857 21.2714 17.0857 20.7429 17.0857C20.2143 17.0857 19.3571 17.2857 18.6286 18.0714C17.9 18.8714 15.8571 20.7857 15.8571 24.6857C15.8571 28.5857 18.7 32.3571 19.0857 32.8857C19.4857 33.4143 24.6714 41.4143 32.6286 44.8571C37.6571 47.0286 39.6286 47.2143 42.1429 46.8429C43.6714 46.6143 46.8286 44.9286 47.4857 43.0714C48.1429 41.2143 48.1429 39.6286 47.9429 39.3C47.7571 38.9429 47.2286 38.7429 46.4429 38.3571Z" fill="#D9D9D9"/>
</g>
<defs>
<clipPath id="clip0_138_45">
<rect width="64" height="64" fill="white"/>
</clipPath>
</defs>
</svg>
