<svg width="40" height="41" viewBox="0 0 30 31" fill="none" xmlns="http://www.w3.org/2000/svg">
<g clip-path="url(#clip0_93_181)">
<path d="M15 30.5C6.717 30.5 0 23.783 0 15.5C0 7.217 6.717 0.5 15 0.5C23.283 0.5 30 7.217 30 15.5C30 23.783 23.283 30.5 15 30.5Z"/>
<path fill-rule="evenodd" clip-rule="evenodd" d="M22.017 8.51599C20.157 6.65299 17.679 5.62699 15.042 5.62399C9.60903 5.62399 5.18403 10.046 5.18403 15.482C5.18403 17.219 5.63703 18.917 6.50103 20.411L5.10303 25.52L10.329 24.149C11.769 24.935 13.389 25.349 15.039 25.349H15.042C20.475 25.349 24.897 20.927 24.9 15.491C24.903 12.857 23.88 10.379 22.017 8.51599ZM15.045 23.684H15.042C13.572 23.684 12.129 23.288 10.872 22.541L10.572 22.364L7.47003 23.177L8.29803 20.153L8.10303 19.844C7.28403 18.539 6.84903 17.033 6.84903 15.482C6.85203 10.964 10.527 7.28899 15.048 7.28899C17.238 7.28899 19.293 8.14399 20.841 9.69199C22.389 11.24 23.241 13.301 23.238 15.488C23.238 20.009 19.56 23.684 15.045 23.684ZM19.539 17.546C19.293 17.423 18.081 16.826 17.856 16.745C17.631 16.664 17.466 16.622 17.301 16.868C17.136 17.114 16.665 17.669 16.521 17.834C16.377 17.999 16.233 18.02 15.987 17.897C15.741 17.774 14.946 17.513 14.007 16.673C13.275 16.019 12.78 15.212 12.636 14.966C12.492 14.72 12.621 14.585 12.744 14.462C12.855 14.351 12.99 14.174 13.113 14.03C13.236 13.886 13.278 13.784 13.359 13.619C13.44 13.454 13.401 13.31 13.338 13.187C13.275 13.064 12.783 11.852 12.579 11.357C12.378 10.877 12.177 10.943 12.024 10.934C11.88 10.928 11.715 10.925 11.553 10.925C11.388 10.925 11.121 10.988 10.896 11.234C10.671 11.48 10.035 12.077 10.035 13.289C10.035 14.501 10.917 15.674 11.04 15.836C11.163 16.001 12.777 18.488 15.249 19.556C15.837 19.811 16.296 19.961 16.653 20.075C17.244 20.264 17.781 20.237 18.204 20.174C18.678 20.102 19.662 19.577 19.866 19.004C20.07 18.428 20.07 17.936 20.01 17.834C19.95 17.732 19.785 17.672 19.539 17.546Z" fill="#f2ecce"/>
</g>
<defs>
<clipPath id="clip0_93_181">
<rect width="30" height="30" fill="white" transform="translate(0 0.5)"/>
</clipPath>
</defs>
</svg>
