<svg width="64" height="64" viewBox="0 0 64 64" fill="none" xmlns="http://www.w3.org/2000/svg">
<g clip-path="url(#clip0_27_308)">
<path d="M0 4C0 1.7875 1.7875 0 4 0H60C62.2125 0 64 1.7875 64 4C64 6.2125 62.2125 8 60 8V56C62.2125 56 64 57.7875 64 60C64 62.2125 62.2125 64 60 64H38V58C38 54.6875 35.3125 52 32 52C28.6875 52 26 54.6875 26 58V64H4C1.7875 64 0 62.2125 0 60C0 57.7875 1.7875 56 4 56V8C1.7875 8 0 6.2125 0 4ZM12 14V18C12 19.1 12.9 20 14 20H18C19.1 20 20 19.1 20 18V14C20 12.9 19.1 12 18 12H14C12.9 12 12 12.9 12 14ZM30 12C28.9 12 28 12.9 28 14V18C28 19.1 28.9 20 30 20H34C35.1 20 36 19.1 36 18V14C36 12.9 35.1 12 34 12H30ZM44 14V18C44 19.1 44.9 20 46 20H50C51.1 20 52 19.1 52 18V14C52 12.9 51.1 12 50 12H46C44.9 12 44 12.9 44 14ZM14 24C12.9 24 12 24.9 12 26V30C12 31.1 12.9 32 14 32H18C19.1 32 20 31.1 20 30V26C20 24.9 19.1 24 18 24H14ZM28 26V30C28 31.1 28.9 32 30 32H34C35.1 32 36 31.1 36 30V26C36 24.9 35.1 24 34 24H30C28.9 24 28 24.9 28 26ZM46 24C44.9 24 44 24.9 44 26V30C44 31.1 44.9 32 46 32H50C51.1 32 52 31.1 52 30V26C52 24.9 51.1 24 50 24H46ZM41 48C42.6625 48 44.0375 46.6375 43.625 45.025C42.3 39.8375 37.6 36 32 36C26.4 36 21.6875 39.8375 20.375 45.025C19.9625 46.625 21.35 48 23 48H41Z" fill="#012840"/>
</g>
<defs>
<clipPath id="clip0_27_308">
<rect width="64" height="64" fill="white"/>
</clipPath>
</defs>
</svg>
