<svg width="64" height="64" viewBox="0 0 64 64" fill="none" xmlns="http://www.w3.org/2000/svg">
<path d="M63.9832 31.9375C63.9832 34.1875 62.3164 35.95 60.4274 35.95H56.8715L56.9493 55.975C56.9493 56.3125 56.9271 56.65 56.8937 56.9875V59C56.8937 61.7625 54.9047 64 52.4489 64H50.671C50.5487 64 50.4265 64 50.3043 63.9875C50.1487 64 49.9931 64 49.8376 64H46.2262H43.5593C41.1035 64 39.1144 61.7625 39.1144 59V56V48C39.1144 45.7875 37.5254 44 35.5586 44H28.4469C26.48 44 24.891 45.7875 24.891 48V56V59C24.891 61.7625 22.9019 64 20.4462 64H17.7793H14.2345C14.0679 64 13.9012 63.9875 13.7345 63.975C13.6012 63.9875 13.4678 64 13.3345 64H11.5565C9.10077 64 7.11172 61.7625 7.11172 59V45C7.11172 44.8875 7.11172 44.7625 7.12283 44.65V35.95H3.55586C1.55569 35.95 0 34.2 0 31.9375C0 30.8125 0.333362 29.8125 1.11121 28.9375L29.6025 1C30.3804 0.125 31.2693 0 32.0472 0C32.825 0 33.714 0.25 34.3807 0.875L62.7609 28.9375C63.6499 29.8125 64.0943 30.8125 63.9832 31.9375Z" fill="#012840"/>
</svg>
