<svg width="64" height="64" viewBox="0 0 64 64" fill="none" xmlns="http://www.w3.org/2000/svg">
<g clip-path="url(#clip0_27_368)">
<path d="M3.68 24H60.32C62.35 24 64 21.9375 64 19.4C64 18.4875 63.78 17.6 63.38 16.85L55.82 2.675C54.93 1 53.44 0 51.83 0H12.17C10.57 0 9.07 1 8.18 2.675L0.62 16.8375C0.22 17.6 0 18.4875 0 19.3875C0 21.9375 1.65 24 3.68 24ZM6.4 28V48V58C6.4 61.3125 8.55 64 11.2 64H33.6C36.25 64 38.4 61.3125 38.4 58V48V28H32V48H12.8V28H6.4ZM51.2 28V60C51.2 62.2125 52.63 64 54.4 64C56.17 64 57.6 62.2125 57.6 60V28H51.2Z" fill="#012840"/>
</g>
<defs>
<clipPath id="clip0_27_368">
<rect width="64" height="64" fill="white"/>
</clipPath>
</defs>
</svg>
